<?xml version="1.0" encoding="UTF-8" standalone="no"?>
<!DOCTYPE svg PUBLIC "-//W3C//DTD SVG 1.1//EN"
 "http://www.w3.org/Graphics/SVG/1.1/DTD/svg11.dtd">
<!-- Generated by graphviz version 2.43.0 (0)
 -->
<!-- Title: %3 Pages: 1 -->
<svg width="742pt" height="231pt"
 viewBox="0.00 0.00 742.26 231.00" xmlns="http://www.w3.org/2000/svg" xmlns:xlink="http://www.w3.org/1999/xlink">
<g id="graph0" class="graph" transform="scale(1 1) rotate(0) translate(4 227)">
<title>%3</title>
<polygon fill="#3f3f3f" stroke="transparent" points="-4,4 -4,-227 738.26,-227 738.26,4 -4,4"/>
<text text-anchor="middle" x="367.13" y="-9.2" font-family="Times,serif" font-size="16.00" fill="white">Network Map</text>
<!-- R3 -->
<g id="node1" class="node">
<title>R3</title>
<polygon fill="#006699" stroke="#006699" points="189.76,-99 112.76,-99 112.76,-26 189.76,-26 189.76,-99"/>
<text text-anchor="middle" x="151.26" y="-58.8" font-family="Helvetica,sans-Serif" font-size="14.00" fill="white">R3</text>
</g>
<!-- SW1 -->
<g id="node7" class="node">
<title>SW1</title>
<polygon fill="#006699" stroke="#006699" points="249.26,-223 159.26,-223 159.26,-150 249.26,-150 249.26,-223"/>
<text text-anchor="middle" x="204.26" y="-182.8" font-family="Helvetica,sans-Serif" font-size="14.00" fill="white">SW1</text>
</g>
<!-- R3&#45;&#45;SW1 -->
<g id="edge5" class="edge">
<title>R3&#45;&#45;SW1</title>
<path fill="none" stroke="green" stroke-dasharray="5,2" d="M146.81,-99.02C146.73,-109.95 148.02,-121.78 152.26,-132 154.89,-138.34 158.65,-144.35 162.98,-149.89"/>
<text text-anchor="middle" x="193.26" y="-120.8" font-family="Courier,monospace" font-size="14.00" fill="white"> &#160;&#160;&#160;&#160;&#160;&#160;&#160;&#160;&#160;&#160;&#160;</text>
<text text-anchor="middle" x="138.98" y="-138.69" font-family="Courier,monospace" font-size="14.00" fill="white">Eth 0/3</text>
<text text-anchor="middle" x="122.81" y="-102.82" font-family="Courier,monospace" font-size="14.00" fill="white">Eth 0/0</text>
</g>
<!-- R6 -->
<g id="node2" class="node">
<title>R6</title>
<polygon fill="#006699" stroke="#006699" points="714.76,-223 637.76,-223 637.76,-150 714.76,-150 714.76,-223"/>
<text text-anchor="middle" x="676.26" y="-182.8" font-family="Helvetica,sans-Serif" font-size="14.00" fill="white">R6</text>
</g>
<!-- R4 -->
<g id="node3" class="node">
<title>R4</title>
<polygon fill="#006699" stroke="#006699" points="346.76,-99 269.76,-99 269.76,-26 346.76,-26 346.76,-99"/>
<text text-anchor="middle" x="308.26" y="-58.8" font-family="Helvetica,sans-Serif" font-size="14.00" fill="white">R4</text>
</g>
<!-- R5 -->
<g id="node6" class="node">
<title>R5</title>
<polygon fill="#006699" stroke="#006699" points="504.76,-223 427.76,-223 427.76,-150 504.76,-150 504.76,-223"/>
<text text-anchor="middle" x="466.26" y="-182.8" font-family="Helvetica,sans-Serif" font-size="14.00" fill="white">R5</text>
</g>
<!-- R4&#45;&#45;R5 -->
<g id="edge7" class="edge">
<title>R4&#45;&#45;R5</title>
<path fill="none" stroke="green" stroke-dasharray="5,2" d="M331.75,-99.14C340.42,-110.56 350.92,-122.66 362.26,-132 381.69,-148.01 406.7,-161.06 427.32,-170.27"/>
<text text-anchor="middle" x="403.26" y="-120.8" font-family="Courier,monospace" font-size="14.00" fill="white"> &#160;&#160;&#160;&#160;&#160;&#160;&#160;&#160;&#160;&#160;&#160;</text>
<text text-anchor="middle" x="403.32" y="-159.07" font-family="Courier,monospace" font-size="14.00" fill="white">Eth 0/1</text>
<text text-anchor="middle" x="307.75" y="-102.94" font-family="Courier,monospace" font-size="14.00" fill="white">Eth 0/1</text>
</g>
<!-- R4&#45;&#45;SW1 -->
<g id="edge6" class="edge">
<title>R4&#45;&#45;SW1</title>
<path fill="none" stroke="green" stroke-dasharray="5,2" d="M273.45,-99C267.93,-104.92 262.36,-111.06 257.26,-117 248.34,-127.38 239.06,-139.03 230.81,-149.75"/>
<text text-anchor="middle" x="298.26" y="-120.8" font-family="Courier,monospace" font-size="14.00" fill="white"> &#160;&#160;&#160;&#160;&#160;&#160;&#160;&#160;&#160;&#160;&#160;</text>
<text text-anchor="middle" x="206.81" y="-138.55" font-family="Courier,monospace" font-size="14.00" fill="white">Eth 0/4</text>
<text text-anchor="middle" x="249.45" y="-102.8" font-family="Courier,monospace" font-size="14.00" fill="white">Eth 0/0</text>
</g>
<!-- R2 -->
<g id="node4" class="node">
<title>R2</title>
<polygon fill="#006699" stroke="#006699" points="609.76,-99 532.76,-99 532.76,-26 609.76,-26 609.76,-99"/>
<text text-anchor="middle" x="571.26" y="-58.8" font-family="Helvetica,sans-Serif" font-size="14.00" fill="white">R2</text>
</g>
<!-- R2&#45;&#45;R6 -->
<g id="edge4" class="edge">
<title>R2&#45;&#45;R6</title>
<path fill="none" stroke="green" stroke-dasharray="5,2" d="M610.06,-87.1C621.75,-95.5 633.93,-105.71 643.26,-117 651.24,-126.67 657.85,-138.59 662.99,-149.77"/>
<text text-anchor="middle" x="693.26" y="-120.8" font-family="Courier,monospace" font-size="14.00" fill="white"> &#160;&#160;&#160;&#160;&#160;&#160;&#160;&#160;&#160;&#160;&#160;</text>
<text text-anchor="middle" x="638.99" y="-138.57" font-family="Courier,monospace" font-size="14.00" fill="white">Eth 0/1</text>
<text text-anchor="middle" x="634.06" y="-75.9" font-family="Courier,monospace" font-size="14.00" fill="white">Eth 0/2</text>
</g>
<!-- R2&#45;&#45;R5 -->
<g id="edge3" class="edge">
<title>R2&#45;&#45;R5</title>
<path fill="none" stroke="green" stroke-dasharray="5,2" d="M564.77,-99.18C561.48,-110.48 556.56,-122.49 549.26,-132 537.67,-147.1 520.53,-159.16 504.83,-167.98"/>
<text text-anchor="middle" x="598.26" y="-120.8" font-family="Courier,monospace" font-size="14.00" fill="white"> &#160;&#160;&#160;&#160;&#160;&#160;&#160;&#160;&#160;&#160;&#160;</text>
<text text-anchor="middle" x="528.83" y="-156.78" font-family="Courier,monospace" font-size="14.00" fill="white">Eth 0/0</text>
<text text-anchor="middle" x="540.77" y="-102.98" font-family="Courier,monospace" font-size="14.00" fill="white">Eth 0/1</text>
</g>
<!-- R2&#45;&#45;SW1 -->
<g id="edge2" class="edge">
<title>R2&#45;&#45;SW1</title>
<path fill="none" stroke="green" stroke-dasharray="5,2" d="M532.72,-80.2C511.63,-89.93 485.36,-103.02 463.26,-117 454.17,-122.75 453.97,-127.38 444.26,-132 380.64,-162.24 299.33,-175.73 249.56,-181.49"/>
<text text-anchor="middle" x="504.26" y="-120.8" font-family="Courier,monospace" font-size="14.00" fill="white"> &#160;&#160;&#160;&#160;&#160;&#160;&#160;&#160;&#160;&#160;&#160;</text>
<text text-anchor="middle" x="273.56" y="-170.29" font-family="Courier,monospace" font-size="14.00" fill="white">Eth 0/2</text>
<text text-anchor="middle" x="508.72" y="-69" font-family="Courier,monospace" font-size="14.00" fill="white">Eth 0/0</text>
</g>
<!-- R1 -->
<g id="node5" class="node">
<title>R1</title>
<polygon fill="#006699" stroke="#006699" points="84.76,-99 7.76,-99 7.76,-26 84.76,-26 84.76,-99"/>
<text text-anchor="middle" x="46.26" y="-58.8" font-family="Helvetica,sans-Serif" font-size="14.00" fill="white">R1</text>
</g>
<!-- R1&#45;&#45;SW1 -->
<g id="edge1" class="edge">
<title>R1&#45;&#45;SW1</title>
<path fill="none" stroke="green" stroke-dasharray="5,2" d="M48,-99.29C50.17,-110.85 54.37,-123 62.26,-132 86.84,-160.03 127.63,-173.42 159.2,-179.79"/>
<text text-anchor="middle" x="103.26" y="-120.8" font-family="Courier,monospace" font-size="14.00" fill="white"> &#160;&#160;&#160;&#160;&#160;&#160;&#160;&#160;&#160;&#160;&#160;</text>
<text text-anchor="middle" x="135.2" y="-168.59" font-family="Courier,monospace" font-size="14.00" fill="white">Eth 0/1</text>
<text text-anchor="middle" x="24" y="-103.09" font-family="Courier,monospace" font-size="14.00" fill="white">Eth 0/0</text>
</g>
</g>
</svg>
