<?xml version="1.0" encoding="UTF-8" standalone="no"?>
<!DOCTYPE svg PUBLIC "-//W3C//DTD SVG 1.1//EN"
 "http://www.w3.org/Graphics/SVG/1.1/DTD/svg11.dtd">
<!-- Generated by graphviz version 2.43.0 (0)
 -->
<!-- Title: %3 Pages: 1 -->
<svg width="758pt" height="231pt"
 viewBox="0.00 0.00 758.45 231.00" xmlns="http://www.w3.org/2000/svg" xmlns:xlink="http://www.w3.org/1999/xlink">
<g id="graph0" class="graph" transform="scale(1 1) rotate(0) translate(4 227)">
<title>%3</title>
<polygon fill="#333333" stroke="transparent" points="-4,4 -4,-227 754.45,-227 754.45,4 -4,4"/>
<text text-anchor="middle" x="375.23" y="-9.2" font-family="Times,serif" font-size="16.00" fill="white">Network Map</text>
<!-- R2 -->
<g id="node1" class="node">
<title>R2</title>
<polygon fill="#006699" stroke="#006699" points="143.95,-99 66.95,-99 66.95,-26 143.95,-26 143.95,-99"/>
<text text-anchor="middle" x="105.45" y="-58.8" font-family="Helvetica,sans-Serif" font-size="14.00" fill="white">R2</text>
</g>
<!-- SW1 -->
<g id="node3" class="node">
<title>SW1</title>
<polygon fill="#006699" stroke="#006699" points="359.45,-223 269.45,-223 269.45,-150 359.45,-150 359.45,-223"/>
<text text-anchor="middle" x="314.45" y="-182.8" font-family="Helvetica,sans-Serif" font-size="14.00" fill="white">SW1</text>
</g>
<!-- R2&#45;&#45;SW1 -->
<g id="edge2" class="edge">
<title>R2&#45;&#45;SW1</title>
<path fill="none" stroke="green" stroke-dasharray="5,2" d="M135.45,-99.35C146.48,-110.92 159.68,-123.06 173.45,-132 202.99,-151.18 240.41,-164.97 269.28,-173.74"/>
<text text-anchor="middle" x="214.45" y="-120.8" font-family="Courier,monospace" font-size="14.00" fill="white"> &#160;&#160;&#160;&#160;&#160;&#160;&#160;&#160;&#160;&#160;&#160;</text>
<text text-anchor="middle" x="248.78" y="-162.54" font-family="Courier,monospace" font-size="14.00" fill="white">Eth0/2</text>
<text text-anchor="middle" x="114.95" y="-103.15" font-family="Courier,monospace" font-size="14.00" fill="white">Eth0/0</text>
</g>
<!-- SW2 -->
<g id="node7" class="node">
<title>SW2</title>
<polygon fill="#006699" stroke="#006699" points="97.45,-223 7.45,-223 7.45,-150 97.45,-150 97.45,-223"/>
<text text-anchor="middle" x="52.45" y="-182.8" font-family="Helvetica,sans-Serif" font-size="14.00" fill="white">SW2</text>
</g>
<!-- R2&#45;&#45;SW2 -->
<g id="edge5" class="edge">
<title>R2&#45;&#45;SW2</title>
<path fill="none" stroke="green" stroke-dasharray="5,2" d="M66.93,-95.72C61.46,-102.17 56.62,-109.34 53.45,-117 49.22,-127.22 47.93,-139.05 48,-149.98"/>
<text text-anchor="middle" x="94.45" y="-120.8" font-family="Courier,monospace" font-size="14.00" fill="white"> &#160;&#160;&#160;&#160;&#160;&#160;&#160;&#160;&#160;&#160;&#160;</text>
<text text-anchor="middle" x="24" y="-138.78" font-family="Courier,monospace" font-size="14.00" fill="white">Eth0/11</text>
<text text-anchor="middle" x="46.43" y="-84.52" font-family="Courier,monospace" font-size="14.00" fill="white">Eth0/1</text>
</g>
<!-- R3 -->
<g id="node2" class="node">
<title>R3</title>
<polygon fill="#006699" stroke="#006699" points="615.95,-99 538.95,-99 538.95,-26 615.95,-26 615.95,-99"/>
<text text-anchor="middle" x="577.45" y="-58.8" font-family="Helvetica,sans-Serif" font-size="14.00" fill="white">R3</text>
</g>
<!-- R3&#45;&#45;SW1 -->
<g id="edge3" class="edge">
<title>R3&#45;&#45;SW1</title>
<path fill="none" stroke="green" stroke-dasharray="5,2" d="M538.74,-82.81C510.52,-96.76 471.29,-115.91 436.45,-132 411.15,-143.69 382.64,-156.23 359.54,-166.22"/>
<text text-anchor="middle" x="508.45" y="-120.8" font-family="Courier,monospace" font-size="14.00" fill="white"> &#160;&#160;&#160;&#160;&#160;&#160;&#160;&#160;&#160;&#160;&#160;</text>
<text text-anchor="middle" x="380.04" y="-155.02" font-family="Courier,monospace" font-size="14.00" fill="white">Eth0/3</text>
<text text-anchor="middle" x="518.24" y="-71.61" font-family="Courier,monospace" font-size="14.00" fill="white">Eth0/0</text>
</g>
<!-- R5 -->
<g id="node6" class="node">
<title>R5</title>
<polygon fill="#006699" stroke="#006699" points="615.95,-223 538.95,-223 538.95,-150 615.95,-150 615.95,-223"/>
<text text-anchor="middle" x="577.45" y="-182.8" font-family="Helvetica,sans-Serif" font-size="14.00" fill="white">R5</text>
</g>
<!-- R3&#45;&#45;R5 -->
<g id="edge7" class="edge">
<title>R3&#45;&#45;R5</title>
<path fill="none" stroke="green" stroke-dasharray="5,2" d="M577.45,-99.12C577.45,-115.01 577.45,-133.7 577.45,-149.63"/>
<text text-anchor="middle" x="618.45" y="-120.8" font-family="Courier,monospace" font-size="14.00" fill="white"> &#160;&#160;&#160;&#160;&#160;&#160;&#160;&#160;&#160;&#160;&#160;</text>
<text text-anchor="middle" x="556.95" y="-138.43" font-family="Courier,monospace" font-size="14.00" fill="white">Eth0/0</text>
<text text-anchor="middle" x="556.95" y="-102.92" font-family="Courier,monospace" font-size="14.00" fill="white">Eth0/2</text>
</g>
<!-- R4 -->
<g id="node8" class="node">
<title>R4</title>
<polygon fill="#006699" stroke="#006699" points="720.95,-223 643.95,-223 643.95,-150 720.95,-150 720.95,-223"/>
<text text-anchor="middle" x="682.45" y="-182.8" font-family="Helvetica,sans-Serif" font-size="14.00" fill="white">R4</text>
</g>
<!-- R3&#45;&#45;R4 -->
<g id="edge6" class="edge">
<title>R3&#45;&#45;R4</title>
<path fill="none" stroke="green" stroke-dasharray="5,2" d="M616.02,-81.02C631.72,-89.84 648.87,-101.9 660.45,-117 667.75,-126.51 672.67,-138.52 675.97,-149.82"/>
<text text-anchor="middle" x="709.45" y="-120.8" font-family="Courier,monospace" font-size="14.00" fill="white"> &#160;&#160;&#160;&#160;&#160;&#160;&#160;&#160;&#160;&#160;&#160;</text>
<text text-anchor="middle" x="655.47" y="-138.62" font-family="Courier,monospace" font-size="14.00" fill="white">Eth0/0</text>
<text text-anchor="middle" x="636.52" y="-69.82" font-family="Courier,monospace" font-size="14.00" fill="white">Eth0/1</text>
</g>
<!-- R1 -->
<g id="node4" class="node">
<title>R1</title>
<polygon fill="#006699" stroke="#006699" points="300.95,-99 223.95,-99 223.95,-26 300.95,-26 300.95,-99"/>
<text text-anchor="middle" x="262.45" y="-58.8" font-family="Helvetica,sans-Serif" font-size="14.00" fill="white">R1</text>
</g>
<!-- R1&#45;&#45;SW1 -->
<g id="edge1" class="edge">
<title>R1&#45;&#45;SW1</title>
<path fill="none" stroke="green" stroke-dasharray="5,2" d="M258.06,-99.35C258.02,-110.18 259.31,-121.87 263.45,-132 266.02,-138.3 269.72,-144.28 273.96,-149.81"/>
<text text-anchor="middle" x="304.45" y="-120.8" font-family="Courier,monospace" font-size="14.00" fill="white"> &#160;&#160;&#160;&#160;&#160;&#160;&#160;&#160;&#160;&#160;&#160;</text>
<text text-anchor="middle" x="253.46" y="-138.61" font-family="Courier,monospace" font-size="14.00" fill="white">Eth0/1</text>
<text text-anchor="middle" x="237.56" y="-103.15" font-family="Courier,monospace" font-size="14.00" fill="white">Eth0/0</text>
</g>
<!-- R6 -->
<g id="node5" class="node">
<title>R6</title>
<polygon fill="#006699" stroke="#006699" points="405.95,-99 328.95,-99 328.95,-26 405.95,-26 405.95,-99"/>
<text text-anchor="middle" x="367.45" y="-58.8" font-family="Helvetica,sans-Serif" font-size="14.00" fill="white">R6</text>
</g>
<!-- R6&#45;&#45;SW1 -->
<g id="edge4" class="edge">
<title>R6&#45;&#45;SW1</title>
<path fill="none" stroke="green" stroke-dasharray="5,2" d="M357.56,-99.24C354.18,-109.95 350.06,-121.61 345.45,-132 342.84,-137.89 339.74,-143.95 336.54,-149.79"/>
<text text-anchor="middle" x="391.45" y="-120.8" font-family="Courier,monospace" font-size="14.00" fill="white"> &#160;&#160;&#160;&#160;&#160;&#160;&#160;&#160;&#160;&#160;&#160;</text>
<text text-anchor="middle" x="316.04" y="-138.59" font-family="Courier,monospace" font-size="14.00" fill="white">Eth0/5</text>
<text text-anchor="middle" x="337.06" y="-103.04" font-family="Courier,monospace" font-size="14.00" fill="white">Eth0/1</text>
</g>
</g>
</svg>
